<svg xmlns="http://www.w3.org/2000/svg" width="25" height="24" viewBox="0 0 25 24" fill="none">
  <path fill-rule="evenodd" clip-rule="evenodd" d="M0.135512 13.8C0.0462617 13.2129 0 12.6118 0 12C0 5.37258 5.42914 0 12.1263 0C16.8607 0 20.9614 2.68491 22.9584 6.6H18.6286C17.0715 4.76583 14.7365 3.6 12.1263 3.6C8.06265 3.6 4.66592 6.42578 3.83324 10.2H24.1171C24.2064 10.7871 24.2526 11.3882 24.2526 12C24.2526 18.6274 18.8235 24 12.1263 24C7.38392 24 3.27736 21.306 1.28413 17.3801L5.55214 17.3142C6.74213 18.7541 8.40563 19.7958 10.3074 20.2067V13.8H0.135512ZM13.9453 20.2067C17.1733 19.5093 19.7147 16.9943 20.4194 13.8H13.9453V20.2067Z" fill="white"/>
</svg>